<?xml version="1.0" encoding="UTF-8"?><svg xmlns="http://www.w3.org/2000/svg" viewBox="0 0 64 64"><defs><style>.cls-1{fill:none;}.cls-2{fill:#fff;}.cls-3{fill:#8c5ec6;}.cls-4{fill:#481a54;}</style></defs><g id="invisi-border"><rect class="cls-1" width="64" height="64"/></g><g id="icon"><g><path class="cls-3" d="M32.99,22c-2.17,0-4.17-.77-5.72-2.06l-2.8,2.52c-1.1,.99-2.53,1.54-4.01,1.54H9.51c-.74,1.89-1.23,3.9-1.42,6H42.22c.85-3.71,3.99-6.56,7.86-6.95-1.74-3.89-4.58-7.18-8.12-9.49-.29,4.7-4.2,8.44-8.97,8.44Z"/><path class="cls-3" d="M42.22,33.99H8.09c.19,2.1,.68,4.11,1.42,6h10.95c1.48,0,2.91,.55,4.01,1.54l2.8,2.52c1.56-1.29,3.55-2.06,5.72-2.06,4.77,0,8.68,3.74,8.97,8.44,3.54-2.31,6.38-5.6,8.12-9.49-3.87-.39-7.01-3.24-7.86-6.96h.01Z"/><path class="cls-3" d="M20.46,20c.5,0,.97-.18,1.34-.51l3.03-2.73c-.53-1.15-.83-2.42-.83-3.76,0-.78,.11-1.53,.3-2.25-5.29,1.42-9.8,4.77-12.72,9.25h8.88Z"/><path class="cls-3" d="M21.8,44.5c-.37-.33-.84-.51-1.34-.51H11.58c2.92,4.47,7.43,7.82,12.72,9.25-.19-.72-.3-1.47-.3-2.25,0-1.34,.3-2.61,.83-3.76l-3.03-2.73Z"/><circle class="cls-2" cx="50.99" cy="32" r="5"/><path class="cls-4" d="M59.99,32c0-3.66-2.2-6.81-5.34-8.21-2.31-6.9-7.43-12.53-14.01-15.49-1.59-2.57-4.42-4.29-7.66-4.29-2.22,0-4.26,.82-5.83,2.16C14.16,7.57,4,18.62,4,32s10.16,24.43,23.17,25.84c1.57,1.34,3.61,2.16,5.83,2.16,3.24,0,6.07-1.72,7.66-4.29,6.58-2.97,11.7-8.59,14.01-15.49,3.14-1.41,5.34-4.56,5.34-8.21h0Z"/><path class="cls-3" d="M41.96,50.43c-.29-4.7-4.2-8.44-8.97-8.44-2.17,0-4.17,.77-5.72,2.06l-2.8-2.52c-1.1-.99-2.53-1.54-4.01-1.54H9.51c-.74-1.89-1.23-3.9-1.42-6H42.22c.85,3.72,3.99,6.57,7.86,6.96-1.74,3.89-4.58,7.18-8.12,9.49h0Z"/><path class="cls-3" d="M50.08,23.05c-3.86,.39-7.01,3.24-7.86,6.95H8.1c.19-2.1,.68-4.11,1.42-6h10.95c1.48,0,2.91-.55,4.01-1.54l2.8-2.52c1.56,1.29,3.55,2.06,5.72,2.06,4.77,0,8.68-3.74,8.97-8.44,3.54,2.31,6.38,5.6,8.12,9.49Z"/><circle class="cls-4" cx="32.99" cy="13" r="5"/><path class="cls-3" d="M24.3,10.75c-.19,.72-.3,1.47-.3,2.25,0,1.34,.3,2.61,.83,3.76l-3.03,2.73c-.37,.33-.84,.51-1.34,.51H11.58c2.92-4.47,7.43-7.82,12.72-9.25Z"/><path class="cls-3" d="M24.3,53.24c-5.29-1.42-9.8-4.77-12.72-9.25h8.89c.5,0,.97,.18,1.34,.51l3.03,2.73c-.53,1.15-.83,2.42-.83,3.76,0,.78,.11,1.53,.3,2.25h0Z"/><circle class="cls-4" cx="32.99" cy="50.99" r="5"/><circle class="cls-2" cx="50.99" cy="32" r="5"/><circle class="cls-2" cx="32.99" cy="13" r="5"/><circle class="cls-2" cx="32.99" cy="50.99" r="5"/></g></g></svg>