<?xml version="1.0" encoding="utf-8"?>
<!-- Generator: Adobe Illustrator 28.1.0, SVG Export Plug-In . SVG Version: 6.00 Build 0)  -->
<svg version="1.1" id="a" xmlns="http://www.w3.org/2000/svg" xmlns:xlink="http://www.w3.org/1999/xlink" x="0px" y="0px"
	 viewBox="0 0 64 64" style="enable-background:new 0 0 64 64;" xml:space="preserve">
<style type="text/css">
	.st0{display:none;fill:#70BF75;}
	.st1{display:none;fill:#396547;}
	.st2{display:none;fill:#FFFFFF;}
	.st3{fill:#7F8CED;}
	.st4{fill:#04E1CB;}
	.st5{fill:#FF538A;}
	.st6{fill:#FE9339;}
	.st7{fill:#91DB8B;}
	.st8{fill:#0D9DDA;}
	.st9{fill:#200647;}
	.st10{fill:#4A154B;}
	.st11{fill:#FF784F;}
	.st12{fill:#730394;}
	.st13{fill:#7526E3;}
	.st14{fill:#032D60;}
</style>
<polygon class="st0" points="53.5,19 17.7,19 20.7,34 50.3,34 "/>
<path class="st1" d="M53.9,36.4l4.1-19c0-0.1,0-0.3,0-0.5c0-1.1-0.9-2-2-1.9H16.9L16,10.6c-0.2-1-1-1.6-2-1.6H8c-1.1,0-2,0.9-2,2
	s0.9,2,2,2h4.4l6.2,30.5c-2.1,0.9-3.6,3-3.6,5.5c0,3.3,2.7,6,6,6s6-2.7,6-6c0-0.7-0.1-1.4-0.4-2h14.7c-0.2,0.6-0.3,1.3-0.3,2
	c0,3.3,2.7,6,6,6s6-2.7,6-6c0-0.7-0.1-1.4-0.3-2H54c1.1,0,2-0.9,2-2s-0.9-2-2-2H22.6l-1-5H52C52.9,38,53.7,37.4,53.9,36.4z M49,49
	c0,1.1-0.9,2-2,2s-2-0.9-2-2s0.9-2,2-2S49,47.9,49,49z M17.7,19h35.8l-3.2,15H20.7L17.7,19z M23,49c0,1.1-0.9,2-2,2s-2-0.9-2-2
	s0.9-2,2-2S23,47.9,23,49z"/>
<circle class="st2" cx="21" cy="49" r="2"/>
<circle class="st2" cx="47" cy="49" r="2"/>
<g>
	<path class="st3" d="M32,4c-2.5,0-4.5,2-4.5,4.5s2,4.5,4.5,4.5s4.5-2,4.5-4.5S34.5,4,32,4z"/>
	<path class="st4" d="M46,7.8c-2.2-1.2-4.9-0.5-6.2,1.6s-0.5,4.9,1.7,6.2s4.9,0.5,6.2-1.6S48.2,9,46,7.8z"/>
	<path class="st5" d="M56.2,18c-1.2-2.1-4-2.9-6.2-1.6s-2.9,4-1.7,6.1s4,2.9,6.2,1.6S57.5,20.1,56.2,18z"/>
	<path class="st6" d="M60,32c0-2.5-2-4.5-4.5-4.5S51,29.5,51,32s2,4.5,4.5,4.5S60,34.5,60,32z"/>
	<path class="st7" d="M56.2,46c1.2-2.2,0.5-4.9-1.7-6.2s-4.9-0.5-6.2,1.7s-0.5,4.9,1.7,6.2S55,48.2,56.2,46z"/>
	<path class="st8" d="M46,56.2c2.2-1.2,2.9-4,1.7-6.2s-4-2.9-6.2-1.7c-2.2,1.2-2.9,4-1.7,6.2S43.8,57.5,46,56.2z"/>
	<path class="st9" d="M32,60c2.5,0,4.5-2,4.5-4.5S34.5,51,32,51s-4.5,2-4.5,4.5S29.5,60,32,60z"/>
	<path class="st10" d="M18,56.2c2.1,1.2,4.9,0.5,6.1-1.7s0.5-4.9-1.6-6.2s-4.9-0.5-6.1,1.7S15.9,55,18,56.2z"/>
	<path class="st11" d="M7.8,46c1.2,2.2,4,2.9,6.1,1.7s2.9-4,1.6-6.2s-4-2.9-6.1-1.7S6.5,43.8,7.8,46z"/>
	<path class="st12" d="M4,32c0,2.5,2,4.5,4.5,4.5s4.5-2,4.5-4.5s-2-4.5-4.5-4.5S4,29.5,4,32z"/>
	<path class="st13" d="M7.8,18c-1.2,2.1-0.5,4.9,1.6,6.1s4.9,0.5,6.2-1.6s0.5-4.9-1.6-6.1S9,15.9,7.8,18z"/>
	<path class="st14" d="M18,7.8c-2.1,1.2-2.9,4-1.6,6.1s4,2.9,6.1,1.6s2.9-4,1.6-6.1S20.1,6.5,18,7.8z"/>
</g>
</svg>
